<?xml version="1.0" standalone="no"?>
<!DOCTYPE svg PUBLIC "-//W3C//DTD SVG 20010904//EN"
 "http://www.w3.org/TR/2001/REC-SVG-20010904/DTD/svg10.dtd">
<svg version="1.0" xmlns="http://www.w3.org/2000/svg"
 width="1025.000000pt" height="1034.000000pt" viewBox="0 0 1025.000000 1034.000000"
 preserveAspectRatio="xMidYMid meet">

<g transform="translate(0.000000,1034.000000) scale(0.100000,-0.100000)"
fill="#000000" stroke="none">
<path d="M4685 7050 c-243 -61 -477 -179 -673 -338 l-42 -35 82 -50 c208 -125
347 -277 420 -462 15 -38 32 -69 38 -67 7 1 37 21 67 43 71 53 198 112 290
135 l71 18 -19 28 c-33 46 -96 188 -114 258 -23 91 -31 272 -15 392 7 54 11
101 9 103 -2 2 -53 -9 -114 -25z"/>
<path d="M5400 7066 c0 -6 5 -38 10 -71 18 -104 13 -306 -9 -400 -22 -89 -60
-182 -104 -252 -15 -24 -27 -45 -27 -47 0 -2 15 -7 33 -11 103 -21 231 -78
336 -151 35 -25 64 -44 65 -42 1 2 15 35 30 75 70 183 215 343 419 461 l80 46
-44 38 c-100 87 -286 198 -439 263 -131 55 -350 112 -350 91z"/>
<path d="M792 6581 c-89 -56 -98 -186 -17 -250 68 -53 153 -47 212 15 60 64
51 172 -20 225 -45 33 -130 38 -175 10z"/>
<path d="M9252 6580 c-94 -57 -97 -197 -6 -259 71 -49 178 -23 219 52 25 48
17 137 -16 173 -53 57 -136 71 -197 34z"/>
<path d="M3593 6188 c-11 -13 2 -67 13 -55 3 3 1 14 -5 24 -7 15 -7 20 4 20 7
0 11 -7 7 -15 -3 -9 -1 -13 5 -9 12 7 12 -41 1 -58 -7 -12 7 -43 16 -35 2 3 7
25 9 49 4 36 0 49 -18 68 -17 19 -24 21 -32 11z"/>
<path d="M3550 6101 c-14 -31 -24 -62 -24 -68 1 -7 -1 -13 -5 -13 -15 0 -53
-130 -46 -157 4 -19 9 -23 15 -14 4 8 12 11 18 8 5 -4 8 6 6 25 -5 40 -14 50
-14 15 0 -14 -4 -29 -10 -32 -13 -8 -13 4 1 43 6 18 15 30 19 27 5 -3 7 8 5
25 -3 21 -1 28 7 24 7 -5 9 -2 5 9 -3 9 -2 19 3 22 5 3 7 12 4 19 -3 8 -1 17
5 21 6 3 11 -1 11 -9 0 -8 5 -18 10 -21 7 -4 9 2 5 18 -4 14 -2 28 4 31 6 4
11 12 11 17 0 6 -4 7 -10 4 -6 -4 -7 1 -3 12 6 15 9 13 18 -11 11 -27 12 -27
18 -7 3 11 1 19 -4 15 -5 -3 -9 3 -9 13 -1 44 -16 38 -40 -16z"/>
<path d="M3650 6130 c0 -5 5 -10 10 -10 6 0 10 5 10 10 0 6 -4 10 -10 10 -5 0
-10 -4 -10 -10z"/>
<path d="M3660 6109 c-12 -8 -12 -9 5 -7 12 2 20 -3 21 -12 4 -58 4 -56 18
-38 13 18 26 14 26 -8 0 -18 -39 -24 -49 -7 -7 14 -9 14 -14 0 -8 -21 17 -29
49 -17 18 7 30 7 39 0 6 -5 14 -8 17 -5 3 3 13 -4 23 -15 14 -15 15 -20 4 -20
-10 -1 -8 -5 5 -15 16 -12 17 -15 4 -15 -9 0 -18 5 -20 12 -3 8 -12 4 -25 -9
-17 -17 -19 -23 -7 -27 8 -3 13 0 11 7 -1 7 9 12 23 13 44 1 51 4 45 17 -4 6
0 4 8 -5 16 -21 28 -23 25 -6 -2 7 -30 32 -63 56 -33 25 -75 60 -93 78 -18 19
-34 34 -35 34 -1 0 -9 -5 -17 -11z"/>
<path d="M733 6066 c-34 -12 -79 -49 -94 -77 -4 -9 -11 -30 -14 -48 -4 -23 -2
-31 10 -31 10 0 14 10 13 34 -1 18 6 44 15 57 l17 23 0 -22 c0 -12 -4 -22 -10
-22 -5 0 -10 -5 -10 -12 0 -9 3 -9 12 0 10 10 16 8 28 -8 15 -20 16 -19 16 22
1 24 -1 33 -3 21 -3 -13 -9 -23 -15 -23 -6 0 -8 9 -5 20 3 11 1 20 -5 20 -5 0
-6 5 -3 11 4 6 14 8 22 5 8 -3 12 -2 9 3 -6 10 41 21 88 21 25 0 28 -2 16 -11
-12 -9 -12 -10 4 -5 28 9 36 -12 18 -45 -9 -15 -13 -31 -9 -36 9 -9 28 17 21
29 -3 4 2 8 10 8 9 0 16 6 16 13 0 6 6 1 13 -13 15 -28 11 -62 -5 -38 -11 17
-2 -41 13 -79 l11 -28 9 24 c11 29 8 82 -4 74 -5 -3 -6 3 -3 14 11 36 -83 115
-132 112 -9 -1 -31 -7 -49 -13z m180 -142 c-4 -12 -8 -13 -14 -3 -9 15 -2 32
11 24 5 -3 6 -13 3 -21z"/>
<path d="M9385 6066 c-11 -7 -24 -15 -30 -16 -26 -7 -36 -14 -55 -45 -12 -19
-18 -40 -14 -50 7 -17 8 -17 20 0 7 9 10 23 7 31 -9 24 25 52 70 59 114 17
105 16 77 4 -14 -6 -42 -12 -62 -14 -21 -2 -46 -11 -55 -21 -18 -17 -26 -77
-9 -67 4 3 12 -1 17 -8 5 -8 7 3 4 29 -3 38 -1 44 20 52 13 5 43 7 67 5 31 -3
37 -2 23 5 -11 5 -15 9 -8 9 6 1 19 4 29 8 12 4 15 3 10 -5 -4 -8 -2 -10 8 -6
11 4 13 0 9 -17 -4 -16 -3 -20 6 -15 8 6 10 0 6 -21 -3 -15 -2 -22 1 -15 3 6
12 12 20 12 23 0 16 17 -20 53 -34 34 -81 52 -92 36 -3 -5 -13 -9 -22 -8 -14
0 -13 2 3 9 14 6 15 9 5 9 -9 1 -24 -5 -35 -13z m-35 -87 c0 -6 -4 -7 -10 -4
-5 3 -10 11 -10 16 0 6 5 7 10 4 6 -3 10 -11 10 -16z"/>
<path d="M3574 6044 c3 -9 6 -18 6 -20 0 -2 4 -4 9 -4 5 0 7 9 4 20 -3 11 -10
20 -15 20 -6 0 -7 -7 -4 -16z"/>
<path d="M768 6043 c6 -2 18 -2 25 0 6 3 1 5 -13 5 -14 0 -19 -2 -12 -5z"/>
<path d="M788 6023 c12 -2 30 -2 40 0 9 3 -1 5 -23 4 -22 0 -30 -2 -17 -4z"/>
<path d="M9469 6008 c-8 -43 -8 -91 0 -105 8 -14 11 -4 9 45 0 34 -3 62 -4 62
-2 0 -4 -1 -5 -2z"/>
<path d="M3765 5990 c-3 -5 1 -10 9 -10 9 0 16 5 16 10 0 6 -4 10 -9 10 -6 0
-13 -4 -16 -10z"/>
<path d="M9551 5954 c0 -11 3 -14 6 -6 3 7 2 16 -1 19 -3 4 -6 -2 -5 -13z"/>
<path d="M3880 5940 c0 -13 41 -30 53 -23 5 3 4 -4 -2 -16 -10 -17 -9 -20 4
-15 8 4 27 -1 41 -11 14 -9 28 -14 32 -11 3 3 0 6 -6 6 -7 0 -12 4 -12 10 0 5
8 7 18 4 13 -5 14 -4 3 4 -7 5 -21 7 -31 5 -10 -3 -21 0 -24 6 -5 7 0 9 11 5
10 -3 -2 6 -27 20 -50 28 -60 31 -60 16z"/>
<path d="M9565 5930 c-3 -5 -2 -17 3 -26 8 -14 10 -12 10 9 0 29 -3 33 -13 17z"/>
<path d="M9332 5904 c10 -10 20 -15 24 -12 3 4 -5 12 -18 18 -22 12 -22 12 -6
-6z"/>
<path d="M9280 5895 c0 -8 5 -15 10 -15 6 0 10 -8 10 -17 0 -13 3 -14 12 -5 9
9 7 16 -10 32 -18 17 -22 18 -22 5z"/>
<path d="M630 5892 c0 -16 28 -47 36 -39 4 4 2 7 -4 7 -7 0 -12 9 -12 20 0 11
-4 20 -10 20 -5 0 -10 -4 -10 -8z"/>
<path d="M9540 5889 c0 -5 -4 -8 -9 -4 -6 3 -9 -9 -8 -26 2 -27 -4 -35 -32
-51 -25 -14 -36 -16 -41 -8 -6 9 -9 9 -12 0 -3 -10 -9 -10 -25 -2 -16 9 -23 8
-33 -3 -9 -11 -5 -15 23 -20 66 -13 172 57 160 105 -6 21 -23 28 -23 9z m20
-23 c0 -2 -7 -7 -16 -10 -8 -3 -12 -2 -9 4 6 10 25 14 25 6z"/>
<path d="M886 5868 c5 -23 2 -27 -28 -34 -18 -4 -27 -9 -20 -11 29 -11 7 -20
-52 -21 -55 -2 -64 1 -69 17 -3 13 -13 19 -31 18 -33 -2 -33 -10 2 -28 15 -8
30 -18 33 -23 11 -15 84 -13 81 2 -2 9 4 11 18 7 13 -4 31 1 50 15 31 22 37
44 20 70 -8 11 -9 8 -4 -12z m-176 -48 c0 -5 -4 -10 -10 -10 -5 0 -10 5 -10
10 0 6 5 10 10 10 6 0 10 -4 10 -10z"/>
<path d="M3947 5869 c7 -7 15 -10 18 -7 3 3 -2 9 -12 12 -14 6 -15 5 -6 -5z"/>
<path d="M4036 5865 c4 -9 19 -15 38 -16 17 0 25 -3 19 -6 -7 -2 -13 -9 -13
-15 0 -6 6 -6 15 2 11 9 22 9 44 2 16 -6 40 -8 53 -6 13 3 5 -2 -17 -11 -75
-31 -83 -36 -47 -29 25 4 32 2 32 -10 0 -21 6 -20 30 4 l21 21 -28 -6 c-22 -5
-24 -4 -12 4 9 6 30 12 48 13 42 3 24 18 -30 25 -24 3 -68 14 -97 24 -63 23
-63 23 -56 4z"/>
<path d="M820 5845 c-14 -8 -20 -14 -14 -15 5 0 19 7 30 15 24 18 16 19 -16 0z"/>
<path d="M9320 5845 c-21 -25 5 -45 28 -21 13 14 14 17 2 14 -8 -2 -14 3 -12
10 3 16 -3 15 -18 -3z"/>
<path d="M9410 5849 c0 -5 4 -8 9 -5 4 3 17 -1 27 -9 10 -8 28 -14 39 -14 18
0 17 1 -5 13 l-24 14 24 5 c14 2 5 5 -22 6 -28 0 -48 -3 -48 -10z"/>
<path d="M3461 5834 c0 -11 3 -14 6 -6 3 7 2 16 -1 19 -3 4 -6 -2 -5 -13z"/>
<path d="M3502 5809 c1 -31 2 -32 11 -11 7 16 7 26 -1 34 -8 8 -10 2 -10 -23z"/>
<path d="M4260 5816 c0 -8 -7 -16 -15 -20 -13 -5 -13 -9 -3 -26 12 -18 13 -18
30 17 22 44 22 43 3 43 -8 0 -15 -6 -15 -14z"/>
<path d="M3476 5811 c-4 -7 -5 -15 -2 -18 9 -9 19 4 14 18 -4 11 -6 11 -12 0z"/>
<path d="M4113 5813 c9 -2 25 -2 35 0 9 3 1 5 -18 5 -19 0 -27 -2 -17 -5z"/>
<path d="M3446 5801 c-4 -6 -5 -11 -3 -11 3 0 -1 -21 -9 -46 -14 -47 -10 -94
8 -94 6 0 8 -6 5 -13 -3 -8 -1 -20 4 -28 13 -20 12 7 -2 68 -10 41 -9 54 4 79
15 29 8 70 -7 45z"/>
<path d="M4222 5725 c-6 -14 -8 -25 -3 -25 5 0 7 -10 5 -22 -2 -13 2 -5 11 16
17 44 5 72 -13 31z"/>
<path d="M4073 5733 c-16 -6 -17 -33 -2 -33 5 0 7 5 4 10 -3 6 3 10 15 10 12
0 18 -4 15 -10 -3 -5 -1 -10 4 -10 6 0 11 4 11 10 0 13 -32 28 -47 23z"/>
<path d="M3503 5646 c2 -63 15 -62 19 3 2 28 -1 45 -9 48 -10 3 -12 -10 -10
-51z"/>
<path d="M4177 5676 c3 -16 10 -23 19 -19 8 3 14 9 14 15 0 5 -4 6 -10 3 -5
-3 -10 1 -10 9 0 9 -4 16 -9 16 -4 0 -6 -11 -4 -24z"/>
<path d="M4161 5665 c-1 -5 7 -32 18 -59 18 -48 18 -48 25 -20 4 16 9 37 13
48 3 12 1 16 -6 12 -6 -4 -11 -19 -12 -34 0 -23 -3 -21 -19 18 -10 25 -19 41
-19 35z"/>
<path d="M3407 5598 c-9 -74 -9 -126 2 -132 8 -6 21 51 20 89 l0 20 -9 -20
c-12 -29 -12 2 0 45 5 19 6 38 1 43 -4 4 -11 -16 -14 -45z"/>
<path d="M3456 5559 c4 -13 8 -56 8 -96 -1 -43 4 -74 10 -76 10 -4 15 117 6
148 -1 6 -3 16 -4 24 0 8 -7 16 -15 19 -11 4 -12 -1 -5 -19z"/>
<path d="M4165 5530 c0 -26 3 -46 6 -44 3 1 6 -23 6 -54 1 -42 -1 -50 -7 -32
-5 17 -8 19 -9 8 -1 -10 -8 -18 -17 -18 -8 0 -12 5 -9 10 11 17 -15 40 -44 39
-25 -1 -24 -2 7 -11 17 -6 32 -15 32 -21 0 -5 -8 -6 -17 -2 -10 4 -36 9 -58
11 -22 1 -64 9 -93 17 -29 8 -55 11 -57 7 -3 -5 -24 -4 -46 1 -23 6 -47 8 -53
5 -6 -2 0 -5 14 -6 l25 -2 -25 -8 c-18 -6 -3 -8 50 -8 41 1 102 -5 135 -12 33
-7 67 -14 75 -15 8 -1 26 -6 40 -12 14 -6 36 -14 49 -18 l24 -7 -5 90 c-3 62
-1 89 6 85 6 -4 2 4 -9 18 -11 13 -20 25 -20 26 0 1 0 -20 0 -47z"/>
<path d="M4113 5533 c9 -2 23 -2 30 0 6 3 -1 5 -18 5 -16 0 -22 -2 -12 -5z"/>
<path d="M3630 5509 c-13 -8 -13 -10 0 -19 18 -11 50 -13 50 -2 -1 24 -28 36
-50 21z"/>
<path d="M3847 5494 c4 -12 14 -14 36 -10 16 3 49 6 73 6 77 0 47 15 -36 18
-70 2 -79 1 -73 -14z"/>
<path d="M4018 5473 c6 -2 18 -2 25 0 6 3 1 5 -13 5 -14 0 -19 -2 -12 -5z"/>
<path d="M4093 5468 c-38 -10 -45 -20 -9 -14 13 2 35 -2 49 -9 23 -12 25 -11
24 5 -2 23 -22 29 -64 18z"/>
<path d="M3533 5453 c-17 -6 -17 -20 0 -26 8 -3 13 3 13 14 0 11 0 19 -1 18 0
0 -6 -3 -12 -6z"/>
<path d="M3635 5450 c-23 -6 -25 -8 -8 -9 12 0 30 -4 40 -7 14 -5 15 -4 4 4
-11 8 -10 11 5 15 10 2 12 5 4 5 -8 0 -28 -4 -45 -8z"/>
<path d="M3985 5440 c27 -12 43 -12 25 0 -8 5 -22 9 -30 9 -10 0 -8 -3 5 -9z"/>
<path d="M3404 5413 c-7 -28 -8 -33 -5 -74 1 -23 19 -21 84 12 20 10 37 17 37
15 0 -2 37 7 82 20 45 13 98 24 118 24 38 0 94 29 58 30 -10 0 -18 -5 -18 -12
0 -9 -3 -9 -12 0 -15 15 -42 16 -32 1 5 -9 -10 -10 -57 -5 -38 4 -59 3 -51 -2
10 -7 6 -12 -15 -20 -15 -5 -37 -13 -48 -18 -11 -4 -29 -9 -39 -11 -11 -2 -26
-8 -33 -15 -10 -8 -17 -7 -29 8 -9 10 -13 13 -9 7 3 -7 0 -13 -7 -13 -10 0
-12 11 -10 40 5 46 -2 52 -14 13z m46 -67 c0 -2 -9 -6 -20 -9 -11 -3 -20 -1
-20 4 0 5 9 9 20 9 11 0 20 -2 20 -4z"/>
<path d="M4192 4970 c-147 -137 -323 -206 -604 -235 -32 -4 -58 -10 -58 -14 0
-16 89 -183 141 -261 74 -114 191 -252 281 -331 83 -74 147 -124 152 -118 2 2
16 42 31 89 74 228 199 403 368 515 l58 39 -70 63 c-82 75 -152 164 -194 251
-17 34 -34 62 -37 62 -3 -1 -34 -28 -68 -60z"/>
<path d="M5910 4964 c-38 -79 -131 -196 -207 -262 l-56 -50 24 -12 c48 -25
199 -152 199 -167 0 -3 18 -25 39 -50 48 -53 118 -193 162 -321 28 -82 34 -91
48 -79 153 125 234 206 326 322 77 99 177 260 179 291 0 12 4 20 8 18 7 -4 42
66 36 71 -2 1 -51 8 -110 14 -241 26 -423 104 -565 240 l-51 49 -32 -64z"/>
<path d="M745 5011 c-112 -39 -152 -139 -92 -230 63 -94 188 -93 251 2 22 34
27 50 23 88 -6 72 -59 129 -132 142 -16 3 -39 2 -50 -2z"/>
<path d="M9385 5007 c-71 -28 -106 -74 -107 -140 -2 -117 130 -197 223 -134
67 45 94 115 70 180 -15 40 -65 85 -107 96 -45 13 -41 13 -79 -2z"/>
<path d="M825 4480 c-3 -5 -1 -10 4 -10 6 0 11 5 11 10 0 6 -2 10 -4 10 -3 0
-8 -4 -11 -10z"/>
<path d="M870 4479 c0 -5 5 -7 10 -4 6 3 10 8 10 11 0 2 -4 4 -10 4 -5 0 -10
-5 -10 -11z"/>
<path d="M4950 4480 c-9 -6 -10 -10 -3 -10 6 0 15 5 18 10 8 12 4 12 -15 0z"/>
<path d="M908 4473 c7 -3 16 -2 19 1 4 3 -2 6 -13 5 -11 0 -14 -3 -6 -6z"/>
<path d="M9288 4473 c7 -3 16 -2 19 1 4 3 -2 6 -13 5 -11 0 -14 -3 -6 -6z"/>
<path d="M775 4450 c-26 -28 -15 -31 12 -3 12 13 19 23 14 23 -4 0 -16 -9 -26
-20z"/>
<path d="M838 4453 c7 -3 16 -2 19 1 4 3 -2 6 -13 5 -11 0 -14 -3 -6 -6z"/>
<path d="M9410 4435 c14 -8 30 -14 35 -14 6 0 -1 6 -15 14 -14 8 -29 14 -35
14 -5 0 1 -6 15 -14z"/>
<path d="M772 4235 c15 -16 29 -27 31 -24 3 2 -10 15 -27 28 l-31 24 27 -28z"/>
<path d="M9225 4240 c10 -11 20 -20 23 -20 3 0 -3 9 -13 20 -10 11 -20 20 -23
20 -3 0 3 -9 13 -20z"/>
<path d="M9410 4245 c-14 -8 -19 -14 -12 -15 8 0 10 -5 6 -12 -4 -8 -3 -10 2
-5 5 5 8 12 7 15 -1 4 8 12 20 19 12 7 18 12 12 12 -5 0 -21 -6 -35 -14z"/>
<path d="M967 4243 c-4 -3 -7 -11 -7 -17 0 -6 5 -5 12 2 6 6 9 14 7 17 -3 3
-9 2 -12 -2z"/>
<path d="M825 4200 c3 -5 8 -10 11 -10 2 0 4 5 4 10 0 6 -5 10 -11 10 -5 0 -7
-4 -4 -10z"/>
<path d="M878 4203 c6 -2 18 -2 25 0 6 3 1 5 -13 5 -14 0 -19 -2 -12 -5z"/>
<path d="M4820 4075 c0 -5 5 -17 10 -25 5 -8 10 -10 10 -5 0 6 -5 17 -10 25
-5 8 -10 11 -10 5z"/>
<path d="M5410 3981 c0 -6 4 -13 10 -16 6 -3 7 1 4 9 -7 18 -14 21 -14 7z"/>
<path d="M4726 3873 c-6 -14 -5 -15 5 -6 7 7 10 15 7 18 -3 3 -9 -2 -12 -12z"/>
<path d="M5486 3837 c3 -10 9 -15 12 -12 3 3 0 11 -7 18 -10 9 -11 8 -5 -6z"/>
<path d="M4758 3753 c7 -3 16 -2 19 1 4 3 -2 6 -13 5 -11 0 -14 -3 -6 -6z"/>
<path d="M4798 3743 c6 -2 18 -2 25 0 6 3 1 5 -13 5 -14 0 -19 -2 -12 -5z"/>
<path d="M5468 3733 c7 -3 16 -2 19 1 4 3 -2 6 -13 5 -11 0 -14 -3 -6 -6z"/>
</g>
</svg>
